<?xml version="1.0" standalone="no"?><!DOCTYPE svg PUBLIC "-//W3C//DTD SVG 1.1//EN" "http://www.w3.org/Graphics/SVG/1.1/DTD/svg11.dtd"><svg t="1751011264703" class="icon" viewBox="0 0 1024 1024" version="1.1" xmlns="http://www.w3.org/2000/svg" p-id="10571" xmlns:xlink="http://www.w3.org/1999/xlink" width="200" height="200"><path d="M1010.176 326.016v629.44A68.64 68.64 0 0 1 941.6 1024H164.576A68.608 68.608 0 0 1 96 955.424V68.576A68.64 68.64 0 0 1 164.576 0h519.744l325.856 326.016z" fill="#ffffff" p-id="10572" class="selected"></path><path d="M695.264 0v280.224a45.696 45.696 0 0 0 45.728 45.792h280.32L695.264 0z" fill="#D2D3D6" p-id="10573"></path><path d="M46.112 476.32h786.304a40.384 40.384 0 0 1 45.728 45.728v310.848a40.416 40.416 0 0 1-45.728 45.696H46.112a40.384 40.384 0 0 1-45.696-45.696v-310.848a40.416 40.416 0 0 1 45.696-45.728z" fill="#515151" p-id="10574" class=""></path><path d="M240.128 577.792v241.152H204.8v-241.152H128V544h188.928v33.792h-76.8zM373.76 818.944h-41.472l92.16-142.08L337.696 544h42.24l66.816 105.216h1.504L515.072 544h42.24l-86.784 132.864 92.16 142.08h-41.472l-72.96-112.512h-1.504l-72.96 112.512zM690.144 577.792v241.152h-35.36v-241.152h-76.8V544h188.928v33.792h-76.8z" fill="#FFFFFF" p-id="10575"></path></svg>