<?xml version="1.0" standalone="no"?><!DOCTYPE svg PUBLIC "-//W3C//DTD SVG 1.1//EN" "http://www.w3.org/Graphics/SVG/1.1/DTD/svg11.dtd"><svg t="1750838419839" class="icon" viewBox="0 0 1024 1024" version="1.1" xmlns="http://www.w3.org/2000/svg" p-id="6825" xmlns:xlink="http://www.w3.org/1999/xlink" width="200" height="200"><path d="M0 858.56V128a128 128 0 0 1 128-128h214.656a96 96 0 0 1 74.72 35.712l80.832 100.192H1024V858.56a128 128 0 0 1-128 128H128a128 128 0 0 1-128-128z" fill="#2D6AEA" p-id="6826"></path><path d="M64 299.712h896a64 64 0 0 1 64 64V871.04a128 128 0 0 1-128 128H128a128 128 0 0 1-128-128V363.712a64 64 0 0 1 64-64z" fill="#CEDBF8" p-id="6827"></path><path d="M248.736 499.52m31.232 0l536.96 0q31.232 0 31.232 31.232l0-0.032q0 31.232-31.232 31.232l-536.96 0q-31.232 0-31.232-31.232l0 0.032q0-31.232 31.232-31.232Z" fill="#FFFFFF" p-id="6828"></path><path d="M248.736 630.656m31.232 0l536.96 0q31.232 0 31.232 31.232l0-0.032q0 31.232-31.232 31.232l-536.96 0q-31.232 0-31.232-31.232l0 0.032q0-31.232 31.232-31.232Z" fill="#FFFFFF" p-id="6829"></path><path d="M248.736 761.76m31.232 0l536.96 0q31.232 0 31.232 31.232l0-0.032q0 31.232-31.232 31.232l-536.96 0q-31.232 0-31.232-31.232l0 0.032q0-31.232 31.232-31.232Z" fill="#FFFFFF" p-id="6830"></path><path d="M174.848 661.856m-37.472 0a37.472 37.472 0 1 0 74.944 0 37.472 37.472 0 1 0-74.944 0Z" fill="#FFFFFF" p-id="6831"></path><path d="M174.848 524.512m-37.472 0a37.472 37.472 0 1 0 74.944 0 37.472 37.472 0 1 0-74.944 0Z" fill="#FFFFFF" p-id="6832"></path><path d="M174.848 786.752m-37.472 0a37.472 37.472 0 1 0 74.944 0 37.472 37.472 0 1 0-74.944 0Z" fill="#FFFFFF" p-id="6833"></path><path d="M124.864 262.24m43.712 0l686.816 0q43.712 0 43.712 43.712l0 0q0 43.712-43.712 43.712l-686.816 0q-43.712 0-43.712-43.712l0 0q0-43.712 43.712-43.712Z" fill="#FFFFFF" p-id="6834"></path></svg>