<?xml version="1.0" standalone="no"?><!DOCTYPE svg PUBLIC "-//W3C//DTD SVG 1.1//EN" "http://www.w3.org/Graphics/SVG/1.1/DTD/svg11.dtd"><svg t="1751617278848" class="icon" viewBox="0 0 1024 1024" version="1.1" xmlns="http://www.w3.org/2000/svg" p-id="11451" xmlns:xlink="http://www.w3.org/1999/xlink" width="200" height="200"><path d="M523.57 0c34.712 0 69.424 5.785 104.136 11.57 17.356 5.786 28.927 17.357 23.141 34.712 0 11.571-11.57 23.142-23.14 23.142-133.063 46.282-225.628 173.56-225.628 312.407 0 92.564 34.712 173.559 98.35 237.197 92.565 92.565 237.198 121.492 358.69 69.424 40.497-17.356 75.209-40.497 104.135-69.424 11.57-11.57 34.712-11.57 46.283 0 5.785 5.786 11.57 17.356 5.785 28.927C957.469 867.797 754.983 1024 523.571 1024 240.09 1024 8.678 798.373 8.678 514.893S240.09 0 523.571 0zM512 63.638c-248.768 0-439.684 202.486-439.684 451.255 0 248.768 202.486 451.254 451.255 451.254 161.988 0 318.192-92.565 393.4-237.198l-34.711 17.356c-144.633 57.853-312.407 23.141-428.113-86.78-69.424-69.423-115.706-167.774-115.706-277.694 0-127.277 63.638-248.769 173.559-318.193z" fill="#004198" p-id="11452"></path><path d="M621.92 509.107c-17.355 0-28.926-11.57-28.926-28.926 0-17.356 11.571-28.927 28.927-28.927h133.062c17.356 0 34.712 11.57 34.712 28.927 0 11.57-5.785 17.356-11.57 23.141l-80.995 86.78h52.068c17.356 0 34.712 11.57 34.712 28.926 0 17.356-17.356 28.927-34.712 28.927H621.92c-5.785 0-11.57 0-17.356-5.786-11.57-11.57-11.57-34.711 0-46.282l80.994-86.78h-63.638zM818.621 428.113c-11.57 0-23.14-5.785-23.14-17.356 0-11.57 11.57-17.356 23.14-17.356h69.424c11.57 0 17.356 5.785 17.356 17.356 0 5.785 0 11.57-5.785 11.57l-34.712 40.498h23.141c5.786 0 17.356 11.57 17.356 17.356 0 11.57-11.57 23.141-17.356 23.141h-69.424c-5.785 0-11.57-5.785-11.57-5.785-11.57-5.786-11.57-23.142 0-28.927l34.712-40.497H818.62zM616.136 873.582c11.57-5.785 23.14 5.785 23.14 11.57 5.786 11.571 0 23.142-11.57 23.142-11.57 5.785-23.141 5.785-40.497 11.57-11.57 0-23.141 0-34.712 5.786-11.57 0-23.141-11.57-23.141-23.142 0-5.785 5.785-17.355 17.356-17.355 11.57 0 23.141 0 34.712-5.786 11.57 0 23.141-5.785 34.712-5.785z m-133.063 11.57c11.571 0 17.356 11.571 17.356 17.356 0 11.571-11.57 23.142-23.14 17.356-86.78-5.785-161.99-40.497-225.628-98.35-63.638-52.068-109.92-127.277-133.062-208.271 0-11.57 5.785-23.141 17.356-23.141 11.57-5.786 17.356 5.785 23.141 11.57 17.356 75.21 57.853 144.633 115.706 190.916 57.853 52.067 127.277 80.994 208.271 92.565z" fill="#004198" p-id="11453"></path></svg>