<?xml version="1.0" standalone="no"?><!DOCTYPE svg PUBLIC "-//W3C//DTD SVG 1.1//EN" "http://www.w3.org/Graphics/SVG/1.1/DTD/svg11.dtd"><svg t="1751869014796" class="icon" viewBox="0 0 1024 1024" version="1.1" xmlns="http://www.w3.org/2000/svg" p-id="6422" xmlns:xlink="http://www.w3.org/1999/xlink" width="200" height="200"><path d="M512 38.4A473.6 473.6 0 1 0 985.6 512 473.6 473.6 0 0 0 512 38.4z m-11.36 757.76a49.248 49.248 0 1 1 49.248-49.248 49.248 49.248 0 0 1-49.248 49.248z m86.4-241.92a69.824 69.824 0 0 0-37.12 62.208v25.6h-98.528v-25.6a166.944 166.944 0 0 1 91.072-150.08 72.352 72.352 0 0 0 44.352-56.384 75.264 75.264 0 0 0-149.664 0h-98.496a173.504 173.504 0 0 1 346.656 0 166.88 166.88 0 0 1-98.304 144.256z" fill="" p-id="6423"></path></svg>