<?xml version="1.0" standalone="no"?><!DOCTYPE svg PUBLIC "-//W3C//DTD SVG 1.1//EN" "http://www.w3.org/Graphics/SVG/1.1/DTD/svg11.dtd"><svg t="1751341721911" class="icon" viewBox="0 0 1024 1024" version="1.1" xmlns="http://www.w3.org/2000/svg" p-id="20290" xmlns:xlink="http://www.w3.org/1999/xlink" width="200" height="200"><path d="M224.5 886.2c-52.8 0-95.8-43.1-95.8-96.1v-545.8c0-53 43-96.1 95.8-96.1h221.9c17.8 0 32.2 14.5 32.2 32.4 0 17.8-14.5 32.3-32.2 32.4h-217.3c-19.7 0-35.8 16.1-35.8 35.9v536.7c0 19.8 16 35.9 35.8 35.9h563.5c19.7 0 35.8-16.1 35.8-35.9v-205.7c0.1-17.7 14.6-32.2 32.3-32.2s32.2 14.4 32.3 32.2v210.2c0 53-43 96.1-95.8 96.1h-572.7z" fill="#8a8a8a" p-id="20291"></path><path d="M353.6 700.6c-7.6 0-14.8-2.9-20.2-8.2-7.2-7.4-10-18.1-7.4-27.9l42-154c0.3-1.2 0.9-2.1 1.6-2.9 0.1-0.4 0.3-1.3 1.1-2l348.8-349c12.6-12.6 29.9-19.5 48.5-19.5 21.1 0 42.2 9 57.8 24.6l38.6 38.7c15.6 15.6 24.6 36.6 24.6 57.7 0 18.7-6.9 35.9-19.5 48.5l-349 348.9c-1.7 1.7-4 2.7-6.6 2.7-0.3 0-0.5 0-0.7-0.1l-152.2 41.5c-2.3 0.7-4.8 1-7.4 1zM403.7 628.8l60.4-16.5-50.8-50.8-16.5 60.5c-1.1 4.2 2.7 8 6.9 6.8zM521.3 567.7l220.6-220.6-62.4-63.4-219.5 219.6c-6.6 6.6-6.6 17.4 0 24l40.5 40.4c5.7 5.7 15.1 5.7 20.8 0zM787.1 301.9l38.8-38.8c2.4-2.3 3.7-5.7 3.7-9.4 0-4.6-2-9.3-5.6-12.9l-38.7-38.7c-3.4-3.4-8.2-5.4-13-5.4-3.8 0-7.1 1.2-9.4 3.5l-38.3 38.3 62.5 63.4z" fill="#8a8a8a" p-id="20292"></path></svg>